<svg width="26" height="25" viewBox="0 0 26 25" fill="none" xmlns="http://www.w3.org/2000/svg">
<path d="M10.4606 11.9692C11.0526 13.8564 14.7947 19.3292 19.342 20.4615M17.5657 22.5846C14.0131 21.5231 10.4215 18.9122 8.32903 14.4461C5.84222 9.13851 11.5263 7.01534 13.6579 11.6154C14.4777 13.3846 15.7894 15.3307 19.6972 17.2769C23.6051 19.223 26.0919 13.3847 22.5393 11.6154C17.3666 9.03939 16.1447 1.63693 8.68429 3.12311C-1.79541 5.21078 0.513411 19.0462 5.84225 22.9385M21.4735 14.4461C15.0789 12.323 15.2336 3.49419 8.32903 6.3076C0.513387 9.49221 6.19754 22.2308 13.3027 24M14.3684 1C18.2762 1.35385 19.342 5.24615 23.6051 8.78462" stroke="#2260FF" stroke-width="2" stroke-linecap="round" stroke-linejoin="round"/>
</svg>
